<svg xmlns="http://www.w3.org/2000/svg" version="1.1" xmlns:xlink="http://www.w3.org/1999/xlink" xmlns:svgjs="http://svgjs.dev/svgjs" width="1920" height="1080" preserveAspectRatio="none" viewBox="0 0 1920 1080"><g mask="url(&quot;#SvgjsMask1035&quot;)" fill="none"><path d="M 0,201 C 128,180.4 384,84.8 640,98 C 896,111.2 1024,251.4 1280,267 C 1536,282.6 1792,194.2 1920,176L1920 1080L0 1080z" fill="rgba(177, 208, 214, 1)"></path><path d="M 0,631 C 76.8,603.2 230.4,481.8 384,492 C 537.6,502.2 614.4,682.4 768,682 C 921.6,681.6 998.4,482.8 1152,490 C 1305.6,497.2 1382.4,708.4 1536,718 C 1689.6,727.6 1843.2,574 1920,538L1920 1080L0 1080z" fill="rgba(144, 188, 196, 1)"></path><path d="M 0,812 C 128,849 384,1008.2 640,997 C 896,985.8 1024,744.4 1280,756 C 1536,767.6 1792,995.2 1920,1055L1920 1080L0 1080z" fill="rgba(77, 148, 161, 1)"></path></g><defs><mask id="SvgjsMask1035"><rect width="1920" height="1080" fill="#ffffff"></rect></mask></defs></svg>